<svg width="196" height="196" fill="currentColor" class="prefix__prefix__bi prefix__prefix__bi-rss-fill" xmlns="http://www.w3.org/2000/svg"><path fill="#fff" d="M16.91 16.295h162.18v163.41H16.91z"/><path d="M26.726 2.972A23.754 23.754 0 002.972 26.726v142.548a23.754 23.754 0 0023.754 23.754h142.548a23.754 23.754 0 0023.754-23.754V26.726a23.754 23.754 0 00-23.754-23.754zm17.822 29.699a118.794 118.794 0 01118.781 118.781 11.877 11.877 0 11-23.754 0 95.028 95.028 0 00-95.027-95.027 11.877 11.877 0 010-23.754zm0 47.507a71.274 71.274 0 0171.274 71.274 11.883 11.883 0 11-23.767 0 47.52 47.52 0 00-47.507-47.495 11.883 11.883 0 010-23.766zm5.932 83.151a17.822 17.822 0 110-35.63 17.822 17.822 0 010 35.63z" fill="#000" stroke="#fff" stroke-width="5.945"/></svg>